<mxfile host="app.diagrams.net" modified="2020-07-20T12:44:16.573Z" agent="5.0 (Windows NT 10.0; Win64; x64) AppleWebKit/537.36 (KHTML, like Gecko) Chrome/84.0.4147.89 Safari/537.36" etag="iUgfsf8v_-qUJAjkPwOC" version="13.4.8" type="github">
  <diagram id="_1yvzCGvJkqXMO69-pvQ" name="Page-1">
    <mxGraphModel dx="1179" dy="762" grid="1" gridSize="10" guides="1" tooltips="1" connect="1" arrows="1" fold="1" page="1" pageScale="1" pageWidth="850" pageHeight="1100" math="0" shadow="0">
      <root>
        <mxCell id="0" />
        <mxCell id="1" parent="0" />
        <mxCell id="zK0P0juZyv0MpJzfHQsb-35" value="" style="edgeStyle=orthogonalEdgeStyle;shape=flexArrow;rounded=0;orthogonalLoop=1;jettySize=auto;html=1;startSize=1;endSize=6;fontSize=18;" edge="1" parent="1" source="zK0P0juZyv0MpJzfHQsb-10" target="zK0P0juZyv0MpJzfHQsb-34">
          <mxGeometry relative="1" as="geometry">
            <Array as="points">
              <mxPoint x="155" y="610" />
              <mxPoint x="155" y="610" />
            </Array>
          </mxGeometry>
        </mxCell>
        <mxCell id="zK0P0juZyv0MpJzfHQsb-58" value="" style="edgeStyle=orthogonalEdgeStyle;shape=flexArrow;rounded=0;orthogonalLoop=1;jettySize=auto;html=1;startSize=1;endSize=6;fontSize=18;entryX=0.5;entryY=0;entryDx=0;entryDy=0;" edge="1" parent="1" source="zK0P0juZyv0MpJzfHQsb-10" target="zK0P0juZyv0MpJzfHQsb-22">
          <mxGeometry relative="1" as="geometry">
            <mxPoint x="405" y="475" as="targetPoint" />
            <Array as="points">
              <mxPoint x="451" y="475" />
            </Array>
          </mxGeometry>
        </mxCell>
        <mxCell id="zK0P0juZyv0MpJzfHQsb-10" value="Proces Actualizare&lt;br&gt;Lista Skils ?" style="rhombus;whiteSpace=wrap;html=1;fontSize=18;" vertex="1" parent="1">
          <mxGeometry x="40" y="410" width="230" height="130" as="geometry" />
        </mxCell>
        <mxCell id="zK0P0juZyv0MpJzfHQsb-19" value="" style="edgeStyle=orthogonalEdgeStyle;shape=flexArrow;rounded=0;orthogonalLoop=1;jettySize=auto;html=1;startSize=1;endSize=6;fontSize=18;" edge="1" parent="1" source="zK0P0juZyv0MpJzfHQsb-18" target="2">
          <mxGeometry relative="1" as="geometry">
            <Array as="points">
              <mxPoint x="430" y="140" />
              <mxPoint x="430" y="140" />
            </Array>
          </mxGeometry>
        </mxCell>
        <mxCell id="zK0P0juZyv0MpJzfHQsb-18" value="Apeleaza&lt;br&gt;EMSI pt informatii versiune lista skiluri" style="whiteSpace=wrap;html=1;fontSize=18;" vertex="1" parent="1">
          <mxGeometry x="40" y="110" width="310" height="90" as="geometry" />
        </mxCell>
        <mxCell id="zK0P0juZyv0MpJzfHQsb-55" value="" style="edgeStyle=orthogonalEdgeStyle;shape=flexArrow;rounded=0;orthogonalLoop=1;jettySize=auto;html=1;startSize=1;endSize=6;fontSize=18;entryX=1;entryY=0.186;entryDx=0;entryDy=0;entryPerimeter=0;" edge="1" parent="1" source="2" target="zK0P0juZyv0MpJzfHQsb-20">
          <mxGeometry relative="1" as="geometry">
            <mxPoint x="480" y="195" as="targetPoint" />
            <Array as="points">
              <mxPoint x="500" y="236" />
              <mxPoint x="500" y="236" />
            </Array>
          </mxGeometry>
        </mxCell>
        <mxCell id="2" value="" style="whiteSpace=wrap;html=1;fontSize=18;" vertex="1" parent="1">
          <mxGeometry x="560" y="110" width="120" height="170" as="geometry" />
        </mxCell>
        <mxCell id="zK0P0juZyv0MpJzfHQsb-37" value="" style="edgeStyle=orthogonalEdgeStyle;shape=flexArrow;rounded=0;orthogonalLoop=1;jettySize=auto;html=1;startSize=1;endSize=6;fontSize=18;" edge="1" parent="1" source="zK0P0juZyv0MpJzfHQsb-20" target="zK0P0juZyv0MpJzfHQsb-10">
          <mxGeometry relative="1" as="geometry">
            <Array as="points">
              <mxPoint x="155" y="370" />
              <mxPoint x="155" y="370" />
            </Array>
          </mxGeometry>
        </mxCell>
        <mxCell id="zK0P0juZyv0MpJzfHQsb-20" value="extrage din DB : versiuneListaSkilsDB&lt;br&gt;Daca versiuneListaSkilsDB este null&lt;br&gt;sau daca versiuneListaSkilsDB&amp;nbsp;este diferita de versiuneListaSkilsEMS" style="whiteSpace=wrap;html=1;fontSize=18;" vertex="1" parent="1">
          <mxGeometry x="40" y="210" width="315" height="140" as="geometry" />
        </mxCell>
        <mxCell id="zK0P0juZyv0MpJzfHQsb-40" value="" style="edgeStyle=orthogonalEdgeStyle;shape=flexArrow;rounded=0;orthogonalLoop=1;jettySize=auto;html=1;startSize=1;endSize=6;fontSize=18;" edge="1" parent="1" source="zK0P0juZyv0MpJzfHQsb-22" target="zK0P0juZyv0MpJzfHQsb-39">
          <mxGeometry relative="1" as="geometry">
            <Array as="points">
              <mxPoint x="451" y="760" />
              <mxPoint x="333" y="760" />
            </Array>
          </mxGeometry>
        </mxCell>
        <mxCell id="zK0P0juZyv0MpJzfHQsb-22" value="Proces Actualizare List Skils" style="whiteSpace=wrap;html=1;fontSize=18;strokeWidth=3;" vertex="1" parent="1">
          <mxGeometry x="212.5" y="540" width="477.5" height="90" as="geometry" />
        </mxCell>
        <mxCell id="zK0P0juZyv0MpJzfHQsb-30" value="" style="edgeStyle=orthogonalEdgeStyle;shape=flexArrow;rounded=0;orthogonalLoop=1;jettySize=auto;html=1;startSize=1;endSize=6;fontSize=18;" edge="1" parent="1" source="zK0P0juZyv0MpJzfHQsb-28" target="zK0P0juZyv0MpJzfHQsb-18">
          <mxGeometry relative="1" as="geometry" />
        </mxCell>
        <mxCell id="zK0P0juZyv0MpJzfHQsb-28" value="Start" style="rounded=1;whiteSpace=wrap;html=1;fontSize=18;" vertex="1" parent="1">
          <mxGeometry x="92.5" y="30" width="120" height="30" as="geometry" />
        </mxCell>
        <mxCell id="zK0P0juZyv0MpJzfHQsb-33" value="versiuneListaSkilsEMS" style="text;html=1;strokeColor=none;fillColor=none;align=center;verticalAlign=middle;whiteSpace=wrap;rounded=0;fontSize=18;" vertex="1" parent="1">
          <mxGeometry x="450" y="210" width="40" height="20" as="geometry" />
        </mxCell>
        <mxCell id="zK0P0juZyv0MpJzfHQsb-43" value="" style="edgeStyle=orthogonalEdgeStyle;shape=flexArrow;rounded=0;orthogonalLoop=1;jettySize=auto;html=1;startSize=1;endSize=6;fontSize=18;" edge="1" parent="1" source="zK0P0juZyv0MpJzfHQsb-34" target="zK0P0juZyv0MpJzfHQsb-41">
          <mxGeometry relative="1" as="geometry" />
        </mxCell>
        <mxCell id="zK0P0juZyv0MpJzfHQsb-34" value="MSG1" style="whiteSpace=wrap;html=1;fontSize=18;" vertex="1" parent="1">
          <mxGeometry x="40" y="700" width="240" height="60" as="geometry" />
        </mxCell>
        <mxCell id="zK0P0juZyv0MpJzfHQsb-47" value="" style="edgeStyle=orthogonalEdgeStyle;shape=flexArrow;rounded=0;orthogonalLoop=1;jettySize=auto;html=1;startSize=1;endSize=6;fontSize=18;" edge="1" parent="1" source="zK0P0juZyv0MpJzfHQsb-39" target="zK0P0juZyv0MpJzfHQsb-46">
          <mxGeometry relative="1" as="geometry" />
        </mxCell>
        <mxCell id="zK0P0juZyv0MpJzfHQsb-39" value="Creare/Actualizare in DB versiuneListaSkilsDB&amp;nbsp;" style="whiteSpace=wrap;html=1;fontSize=18;strokeWidth=1;" vertex="1" parent="1">
          <mxGeometry x="200" y="800" width="265" height="60" as="geometry" />
        </mxCell>
        <mxCell id="zK0P0juZyv0MpJzfHQsb-41" value="STOP" style="rounded=1;whiteSpace=wrap;html=1;dashed=1;strokeWidth=1;fontSize=18;" vertex="1" parent="1">
          <mxGeometry x="100" y="910" width="120" height="60" as="geometry" />
        </mxCell>
        <mxCell id="zK0P0juZyv0MpJzfHQsb-49" value="" style="edgeStyle=orthogonalEdgeStyle;shape=flexArrow;rounded=0;orthogonalLoop=1;jettySize=auto;html=1;startSize=1;endSize=6;fontSize=18;entryX=1;entryY=0.5;entryDx=0;entryDy=0;" edge="1" parent="1" source="zK0P0juZyv0MpJzfHQsb-46" target="zK0P0juZyv0MpJzfHQsb-41">
          <mxGeometry relative="1" as="geometry">
            <mxPoint x="397.5" y="1060" as="targetPoint" />
          </mxGeometry>
        </mxCell>
        <mxCell id="zK0P0juZyv0MpJzfHQsb-46" value="MSG2" style="whiteSpace=wrap;html=1;fontSize=18;strokeWidth=1;" vertex="1" parent="1">
          <mxGeometry x="272.5" y="910" width="120" height="60" as="geometry" />
        </mxCell>
      </root>
    </mxGraphModel>
  </diagram>
</mxfile>
